<mxfile host="65bd71144e">
    <diagram id="1SBTj_Q3xWeMkr26QCZp" name="Page-1">
        <mxGraphModel dx="616" dy="772" grid="1" gridSize="10" guides="1" tooltips="1" connect="1" arrows="1" fold="1" page="1" pageScale="1" pageWidth="850" pageHeight="1100" math="0" shadow="0">
            <root>
                <mxCell id="0"/>
                <mxCell id="1" parent="0"/>
                <mxCell id="6" style="edgeStyle=none;html=1;exitX=0.5;exitY=1;exitDx=0;exitDy=0;entryX=0.5;entryY=0;entryDx=0;entryDy=0;" edge="1" parent="1" source="2" target="3">
                    <mxGeometry relative="1" as="geometry"/>
                </mxCell>
                <mxCell id="2" value="&lt;div style=&quot;color: rgb(212, 212, 212); background-color: rgb(30, 30, 30); font-family: Consolas, &amp;quot;Courier New&amp;quot;, monospace; font-size: 14px; line-height: 19px;&quot;&gt;&lt;span style=&quot;color: #569cd6;&quot;&gt;void&lt;/span&gt; &lt;span style=&quot;color: #dcdcaa;&quot;&gt;FillSecondArray&lt;/span&gt;(&lt;span style=&quot;color: #569cd6;&quot;&gt;string&lt;/span&gt;[] &lt;span style=&quot;color: #9cdcfe;&quot;&gt;array&lt;/span&gt;, &lt;span style=&quot;color: #569cd6;&quot;&gt;string&lt;/span&gt;[] &lt;span style=&quot;color: #9cdcfe;&quot;&gt;array2&lt;/span&gt;)&lt;/div&gt;" style="ellipse;whiteSpace=wrap;html=1;" vertex="1" parent="1">
                    <mxGeometry x="190" y="30" width="420" height="140" as="geometry"/>
                </mxCell>
                <mxCell id="5" style="edgeStyle=none;html=1;entryX=0.5;entryY=0;entryDx=0;entryDy=0;" edge="1" parent="1" source="3" target="4">
                    <mxGeometry relative="1" as="geometry"/>
                </mxCell>
                <mxCell id="21" value="true" style="edgeLabel;html=1;align=center;verticalAlign=middle;resizable=0;points=[];fontSize=24;" vertex="1" connectable="0" parent="5">
                    <mxGeometry x="-0.6036" y="-2" relative="1" as="geometry">
                        <mxPoint as="offset"/>
                    </mxGeometry>
                </mxCell>
                <mxCell id="19" style="edgeStyle=none;html=1;fontSize=24;" edge="1" parent="1" source="3">
                    <mxGeometry relative="1" as="geometry">
                        <mxPoint x="760" y="345" as="targetPoint"/>
                    </mxGeometry>
                </mxCell>
                <mxCell id="3" value="&lt;div style=&quot;color: rgb(212, 212, 212); background-color: rgb(30, 30, 30); font-family: Consolas, &amp;quot;Courier New&amp;quot;, monospace; font-size: 14px; line-height: 19px;&quot;&gt;&lt;span style=&quot;color: #c586c0;&quot;&gt;for&lt;/span&gt; (&lt;span style=&quot;color: #569cd6;&quot;&gt;int&lt;/span&gt; &lt;span style=&quot;color: #9cdcfe;&quot;&gt;index&lt;/span&gt; = &lt;span style=&quot;color: #b5cea8;&quot;&gt;0&lt;/span&gt;, &lt;span style=&quot;color: #9cdcfe;&quot;&gt;index2&lt;/span&gt; = &lt;span style=&quot;color: #b5cea8;&quot;&gt;0&lt;/span&gt;; &lt;span style=&quot;color: #9cdcfe;&quot;&gt;index&lt;/span&gt; &amp;lt; &lt;span style=&quot;color: #9cdcfe;&quot;&gt;array&lt;/span&gt;.&lt;span style=&quot;color: #9cdcfe;&quot;&gt;Length&lt;/span&gt; &amp;amp;&amp;amp; &lt;span style=&quot;color: #9cdcfe;&quot;&gt;index2&lt;/span&gt; &amp;lt; &lt;span style=&quot;color: #9cdcfe;&quot;&gt;array2&lt;/span&gt;.&lt;span style=&quot;color: #9cdcfe;&quot;&gt;Length&lt;/span&gt;; )&lt;/div&gt;" style="rhombus;whiteSpace=wrap;html=1;" vertex="1" parent="1">
                    <mxGeometry x="75" y="230" width="650" height="230" as="geometry"/>
                </mxCell>
                <mxCell id="7" style="edgeStyle=none;html=1;entryX=0.5;entryY=0;entryDx=0;entryDy=0;entryPerimeter=0;" edge="1" parent="1" source="4" target="8">
                    <mxGeometry relative="1" as="geometry">
                        <mxPoint x="400" y="790" as="targetPoint"/>
                    </mxGeometry>
                </mxCell>
                <mxCell id="4" value="&lt;div style=&quot;color: rgb(212, 212, 212); background-color: rgb(30, 30, 30); font-family: Consolas, &amp;quot;Courier New&amp;quot;, monospace; font-size: 14px; line-height: 19px;&quot;&gt;&lt;div&gt;&lt;span style=&quot;color: #569cd6;&quot;&gt;int&lt;/span&gt; &lt;span style=&quot;color: #9cdcfe;&quot;&gt;stringSize&lt;/span&gt; = &lt;span style=&quot;color: #b5cea8;&quot;&gt;3&lt;/span&gt;;&lt;/div&gt;&lt;div&gt;&amp;nbsp;&amp;nbsp;&lt;span style=&quot;color: #569cd6;&quot;&gt;string&lt;/span&gt; &lt;span style=&quot;color: #9cdcfe;&quot;&gt;item&lt;/span&gt; = &lt;span style=&quot;color: #9cdcfe;&quot;&gt;array&lt;/span&gt;[&lt;span style=&quot;color: #9cdcfe;&quot;&gt;index&lt;/span&gt;];&lt;/div&gt;&lt;/div&gt;" style="rounded=0;whiteSpace=wrap;html=1;" vertex="1" parent="1">
                    <mxGeometry x="285" y="550" width="230" height="90" as="geometry"/>
                </mxCell>
                <mxCell id="12" style="edgeStyle=none;html=1;entryX=0.5;entryY=0;entryDx=0;entryDy=0;" edge="1" parent="1" source="8" target="11">
                    <mxGeometry relative="1" as="geometry"/>
                </mxCell>
                <mxCell id="17" value="true" style="edgeLabel;html=1;align=center;verticalAlign=middle;resizable=0;points=[];fontSize=24;" vertex="1" connectable="0" parent="12">
                    <mxGeometry x="-0.4951" y="-2" relative="1" as="geometry">
                        <mxPoint y="-1" as="offset"/>
                    </mxGeometry>
                </mxCell>
                <mxCell id="13" style="edgeStyle=none;html=1;exitX=1;exitY=0.5;exitDx=0;exitDy=0;entryX=1;entryY=0.5;entryDx=0;entryDy=0;" edge="1" parent="1" source="8" target="14">
                    <mxGeometry relative="1" as="geometry">
                        <mxPoint x="640" y="780.1428571428573" as="targetPoint"/>
                        <Array as="points">
                            <mxPoint x="650" y="760"/>
                            <mxPoint x="650" y="1030"/>
                        </Array>
                    </mxGeometry>
                </mxCell>
                <mxCell id="16" value="&lt;font style=&quot;font-size: 24px;&quot;&gt;false&lt;/font&gt;" style="edgeLabel;html=1;align=center;verticalAlign=middle;resizable=0;points=[];" vertex="1" connectable="0" parent="13">
                    <mxGeometry x="0.0184" y="4" relative="1" as="geometry">
                        <mxPoint y="1" as="offset"/>
                    </mxGeometry>
                </mxCell>
                <mxCell id="8" value="&lt;div style=&quot;color: rgb(212, 212, 212); background-color: rgb(30, 30, 30); font-family: Consolas, &amp;quot;Courier New&amp;quot;, monospace; font-size: 14px; line-height: 19px;&quot;&gt;&lt;span style=&quot;color: #c586c0;&quot;&gt;if&lt;/span&gt; (&lt;span style=&quot;color: #9cdcfe;&quot;&gt;item&lt;/span&gt;.&lt;span style=&quot;color: #9cdcfe;&quot;&gt;Length&lt;/span&gt; &amp;lt;= &lt;span style=&quot;color: #9cdcfe;&quot;&gt;stringSize&lt;/span&gt;)&lt;/div&gt;" style="rhombus;whiteSpace=wrap;html=1;" vertex="1" parent="1">
                    <mxGeometry x="270" y="680" width="255" height="160" as="geometry"/>
                </mxCell>
                <mxCell id="15" style="edgeStyle=none;html=1;exitX=0.5;exitY=1;exitDx=0;exitDy=0;entryX=0.5;entryY=0;entryDx=0;entryDy=0;" edge="1" parent="1" source="11" target="14">
                    <mxGeometry relative="1" as="geometry"/>
                </mxCell>
                <mxCell id="11" value="&lt;div style=&quot;color: rgb(212, 212, 212); background-color: rgb(30, 30, 30); font-family: Consolas, &amp;quot;Courier New&amp;quot;, monospace; font-size: 14px; line-height: 19px;&quot;&gt;&lt;div&gt;&amp;nbsp;&lt;span style=&quot;color: #9cdcfe;&quot;&gt;array2&lt;/span&gt;[&lt;span style=&quot;color: #9cdcfe;&quot;&gt;index2&lt;/span&gt;] = &lt;span style=&quot;color: #9cdcfe;&quot;&gt;array&lt;/span&gt;[&lt;span style=&quot;color: #9cdcfe;&quot;&gt;index&lt;/span&gt;];&lt;/div&gt;&lt;div&gt;&lt;span style=&quot;color: #9cdcfe;&quot;&gt;index2&lt;/span&gt;++;&lt;/div&gt;&lt;/div&gt;" style="rounded=0;whiteSpace=wrap;html=1;" vertex="1" parent="1">
                    <mxGeometry x="272.5" y="900" width="250" height="60" as="geometry"/>
                </mxCell>
                <mxCell id="18" style="edgeStyle=none;html=1;exitX=0;exitY=0.5;exitDx=0;exitDy=0;entryX=0;entryY=0.5;entryDx=0;entryDy=0;fontSize=24;" edge="1" parent="1" source="14" target="3">
                    <mxGeometry relative="1" as="geometry">
                        <Array as="points">
                            <mxPoint x="30" y="1030"/>
                            <mxPoint x="20" y="346"/>
                        </Array>
                    </mxGeometry>
                </mxCell>
                <mxCell id="14" value="&lt;div style=&quot;color: rgb(212, 212, 212); background-color: rgb(30, 30, 30); font-family: Consolas, &amp;quot;Courier New&amp;quot;, monospace; font-size: 14px; line-height: 19px;&quot;&gt;&lt;span style=&quot;color: #9cdcfe;&quot;&gt;index&lt;/span&gt;++&lt;/div&gt;" style="rounded=0;whiteSpace=wrap;html=1;" vertex="1" parent="1">
                    <mxGeometry x="329" y="1000" width="137" height="60" as="geometry"/>
                </mxCell>
                <mxCell id="20" value="end" style="ellipse;whiteSpace=wrap;html=1;fontSize=24;" vertex="1" parent="1">
                    <mxGeometry x="760" y="305" width="90" height="80" as="geometry"/>
                </mxCell>
            </root>
        </mxGraphModel>
    </diagram>
</mxfile>